<svg class="logo-svg-2zmJQ" width="154" height="36" viewBox="0 0 154 36" fill="none" xmlns="http://www.w3.org/2000/svg"><path d="m54.846 22.156c-1.1769 1.2652-2.3833 1.8831-3.7073 1.8831-2.5305 0-4.5018-2.0891-4.5018-4.7666 0-2.707 1.9125-4.7961 4.3841-4.7961 1.8242 0 3.0012 0.971 3.7956 1.8243l0.1471 0.1765 1.5301-1.6183-0.1472-0.1471c-1.0298-1.0887-2.5598-2.3539-5.2962-2.3539-3.7662 0-6.8263 3.1189-6.8263 6.944 0 3.8839 3.0012 6.9439 6.8263 6.9439 2.7658 0 4.3547-1.3829 5.4139-2.5598l0.1471-0.1766-1.5888-1.4711-0.1766 0.1177z" fill="#fff"></path><path d="m64.732 12.329c-1.736 0-3.1483 0.6768-4.1781 2.0303v-7.2088l-2.3539 1.1475v17.566h2.3539v-7.5619c0-2.2362 1.5006-3.7956 3.6485-3.7956 2.0891 0 3.3249 1.3829 3.3249 3.6485v7.7384h2.3539v-8.2092c0-3.266-2.0008-5.3551-5.1492-5.3551z" fill="#fff"></path><path d="m77.737 12.389c-2.0302 0-3.5014 0.5296-4.7666 1.1181l-0.1766 0.0882 0.7356 1.9714 0.206-0.0883c1.3829-0.6178 2.5304-0.9121 3.825-0.9121 2.3539 0 3.5897 1.1181 3.5897 3.266v0.1177c-0.971-0.2648-2.0891-0.4708-3.7074-0.4708-3.5896 0-5.7081 1.6478-5.7081 4.4136 0 2.7952 2.5304 4.2664 5.0314 4.2664 2.1479 0 3.5308-0.9121 4.4135-1.8243v1.5301h2.3245v-8.0621c0-1.7066-0.4708-3.0012-1.4123-3.9428-1.0004-0.9415-2.501-1.4711-4.3547-1.4711zm3.4131 7.5324v1.0298c0 1.8537-1.736 3.2366-4.0604 3.2366-1.4418 0-3.0012-0.7356-3.0012-2.3539 0-1.5006 1.324-2.4127 3.5308-2.4127 1.53 0 2.7364 0.2648 3.5308 0.5002z" fill="#fff"></path><path d="m92.802 12.328c-1.7359 0-3.1483 0.6768-4.1781 2.0303v-1.736h-2.3539v13.299h2.3539v-7.6207c0-2.2362 1.5006-3.7956 3.6485-3.7956 2.0891 0 3.3249 1.3829 3.3249 3.6485v7.7384h2.3539v-8.2092c0-3.266-2.0303-5.3551-5.1492-5.3551z" fill="#fff"></path><path d="m110.96 14.506c-1.265-1.4418-2.883-2.1774-4.796-2.1774-1.589 0-3.177 0.6179-4.325 1.6772-1.265 1.1769-1.9419 2.7952-1.9419 4.6195 0 1.7948 0.6769 3.4425 1.9419 4.6195 1.148 1.0592 2.736 1.6771 4.325 1.6771 1.913 0 3.502-0.765 4.826-2.295v0.8827c0 2.7658-1.619 4.3547-4.443 4.3547-1.736 0-3.354-0.5297-4.826-1.5889l-0.206-0.1471-1.088 1.8831 0.176 0.1177c1.736 1.2063 3.766 1.8242 5.973 1.8242 2.148 0 3.884-0.6179 5.061-1.7948 1.118-1.1475 1.707-2.707 1.707-4.7078v-10.857h-2.354v1.9126h-0.03zm0.089 4.0898c0 2.6187-2.295 4.1782-4.502 4.1782-2.384 0-4.237-1.8243-4.237-4.1487 0-2.4128 1.765-4.1488 4.237-4.1488 2.207-0.0294 4.502 1.5301 4.502 4.1193z" fill="#fff"></path><path d="m121.9 12.328c-3.649 0-6.385 2.9718-6.385 6.944s2.854 6.9439 6.65 6.9439c2.236 0 3.913-0.765 5.472-2.501l0.147-0.1765-1.53-1.3535-0.147 0.1471c-1.147 1.2064-2.383 1.736-3.884 1.736-2.265 0-3.942-1.53-4.266-3.825h10.151l0.03-0.206c0.029-0.2942 0.029-0.5002 0.029-0.6767-0.029-4.2076-2.53-7.0323-6.267-7.0323zm3.825 5.9436h-7.797c0.353-2.2951 1.942-3.8839 3.942-3.8839 2.442 0 3.59 1.9419 3.855 3.8839z" fill="#fff"></path><path d="m130.35 25.894h2.354v-17.919l-2.354 1.1769v16.742z" fill="#fff"></path><path d="m135.79 25.893h2.354v-18.743l-2.354 1.1769v17.566z" fill="#fff"></path><path d="m150.68 12.594-4.002 10.357-4.531-10.357h-2.589l5.943 13.035c-0.794 1.8242-1.471 2.1773-2.383 2.1773-0.765 0-1.294-0.1177-1.912-0.4413l-0.206-0.1177-0.824 1.9419 0.176 0.0883c0.971 0.4708 1.795 0.6767 2.825 0.6767 2.089 0 3.384-1.0886 4.472-3.7662l5.532-13.594h-2.501z" fill="#fff"></path><path d="m37.705 0.058847c-0.1471 0-3.4131 0.14712-7.4736 1.1181-5.5022 1.2946-9.6215 3.4426-12.152 6.3555-0.5591 0.64732-1.0887 1.2652-1.5595 1.8537-1.0004 0.26481-3.7662 1.0298-5.0314 1.2652-0.7356 0.1471-1.3535 0.5591-1.7948 1.177-0.91213 1.324-2.501 4.031-2.5598 4.1487l-1.8243 3.1189 3.3249-1.4418c1.4418-0.6473 3.472-1.0886 4.0605-0.7356 0.0294 0.0295 0.0588 0.0295 0.0882 0.206 0 0.9416 0.2354 1.8537 0.6768 2.7658-0.9121 0.7062-1.4123 1.8243-1.3535 2.9718v4.0605h4.0604c1.1476 0.0588 2.2362-0.4708 2.9718-1.3535 0.9122 0.4413 1.8243 0.6473 2.7658 0.6767 0.1472 0.0294 0.1766 0.0589 0.1766 0.0883 0.3531 0.5885-0.0883 2.6187-0.7356 4.0604l-1.4418 3.2955 3.1189-1.8243c0.1177-0.0588 2.8247-1.6477 4.1488-2.5598 0.6179-0.412 1.0298-1.0593 1.1769-1.7949 0.2648-1.2652 1.0004-4.031 1.2652-5.0314 0.5885-0.4708 1.2064-1.0004 1.8537-1.5595 6.8263-6.0318 7.4442-19.096 7.4736-19.655l0.0588-1.2652-1.2946 0.058847zm-24.451 14.565c-0.765-0.2354-1.6477-0.206-2.501-0.0588 0.3237-0.5297 0.6473-1.0299 0.9121-1.4124 0.0589-0.1177 0.1766-0.1765 0.3237-0.2059 0.5885-0.1177 1.5006-0.3531 2.4127-0.5591-0.5296 0.7945-0.8827 1.53-1.1475 2.2362zm4.0016 9.445c-0.2354 0.3236-0.6473 0.5002-1.0298 0.4707h-0.3825l2.4421-3.825-3.825 2.4716v-0.412c-0.0294-0.4119 0.1471-0.7944 0.4708-1.0298l4.6783-3.7074c0.2354-0.2059 0.5591-0.353 0.8533-0.4119l1.2358-0.2942-0.2943 1.2358c-0.0882 0.3236-0.2059 0.6179-0.4119 0.8532l-3.7368 4.649zm8.7682 2.9717c-0.0294 0.1177-0.0882 0.2354-0.2059 0.3237-0.3825 0.2648-0.8827 0.5885-1.4124 0.9121 0.1472-0.8532 0.1766-1.736-0.0588-2.501 0.7062-0.2648 1.4418-0.6179 2.2362-1.1181-0.206 0.8827-0.4414 1.7654-0.5591 2.3833zm3.8839-7.8855c-4.0604 3.5897-6.2966 4.649-7.9149 4.7078h-0.0588c-0.5002 0-0.9122-0.0883-1.3241-0.2354l2.1773-2.7658c0.412-0.5296 0.7062-1.1181 0.8828-1.7654l1.1769-4.9432-4.9432 1.177c-0.6473 0.1471-1.2652 0.4413-1.7654 0.8533l-2.7658 2.1773c-0.1471-0.4119-0.2354-0.8239-0.2354-1.3241v-0.0588c0.0294-1.5889 1.1181-3.8545 4.7078-7.915 4.3253-4.9137 13.27-6.2378 16.624-6.5614-0.3237 3.3837-1.6477 12.328-6.5615 16.654z" fill="#10D078"></path><path d="m11.622 32.736c-1.5006 0.2942-3.0306 0.3825-4.5606 0.4119-0.8827 0-1.7654-0.0294-2.6775-0.1177 0.35308-0.5885 0.67674-1.1769 0.97098-1.7948 0.55904-1.2653 0.97097-2.5305 1.2946-3.8251 0.29424-1.2358 0.64732-2.4422 1.0887-3.6485 0.41193-1.2064 0.88271-2.4128 1.4123-3.6191-0.47077 0.4708-0.8827 0.971-1.2652 1.5006-0.3825 0.5296-0.76501 1.0887-1.1181 1.6477-0.67675 1.1181-1.2652 2.3539-1.7654 3.5602-0.47077 1.177-0.97097 2.3539-1.5594 3.4132-0.58848 1.0592-1.2652 2.0302-2.0891 2.9718l-1.3535 1.5888 2.0891 0.2943c1.6477 0.2354 3.3249 0.3531 5.002 0.2942 0.85328-0.0294 1.6771-0.0883 2.5304-0.2354 0.8239-0.1177 1.6771-0.3236 2.4716-0.559 1.6183-0.4708 3.1777-1.2358 4.5606-2.2068 0.6768-0.5002 1.3241-1.0592 1.8537-1.7066 0.5296-0.6473 1.0298-1.324 1.3535-2.089-1.1181 1.1769-2.4716 2.0302-3.8545 2.7069-1.4123 0.6768-2.8835 1.1181-4.3841 1.4124z" fill="#10D078"></path><path d="m29.055 14.065c1.0593 0 2.1185-0.4119 2.9424-1.2064 1.6183-1.6183 1.6183-4.237 0-5.8553-0.7945-0.79444-1.8243-1.2064-2.9424-1.2064s-2.1479 0.44135-2.9424 1.2064c-1.6182 1.6183-1.6182 4.237 0 5.8553 0.7945 0.7945 1.8537 1.2064 2.9424 1.2064zm-1.2946-5.4139c0.353-0.35308 0.7944-0.52962 1.2652-0.52962s0.9415 0.17654 1.2652 0.52962c0.7062 0.70616 0.7062 1.8242 0 2.5304-0.7062 0.7061-1.8243 0.7061-2.5304 0-0.6768-0.6768-0.6768-1.8243 0-2.5304z" fill="#10D078"></path></svg>