<svg width="1675" height="1674" viewBox="0 0 1675 1674" fill="none" xmlns="http://www.w3.org/2000/svg">
<path d="M792 0.599976C789.5 0.799927 781 1.40002 773 2C714.8 6.19995 651.1 18.2 594 35.5C480.3 70.1 376.8 127.8 285.4 207.4C266.3 224.1 225.1 265.3 208.4 284.4C143.8 358.6 94.1998 439.7 58.6998 529.5C23.2998 619.2 3.59977 715.2 1.19977 810.2C-1.00023 894.5 6.79976 966.8 26.1998 1043.5C58.4998 1171.4 120 1288.1 208.4 1389.6C225.1 1408.7 266.3 1449.9 285.4 1466.6C387.4 1555.5 504.8 1617.1 633.7 1649.4C678.9 1660.7 720.5 1667.5 773 1672.2C796 1674.3 885.4 1673.9 909 1671.7C995.7 1663.5 1070.2 1646.1 1145.5 1616.3C1336.5 1540.8 1493.3 1397.8 1585.6 1214.7C1635.7 1115.4 1662.8 1018.8 1673.2 902C1675.3 879 1674.9 789.6 1672.7 766C1664.5 679.3 1647.1 604.8 1617.3 529.5C1532.1 313.9 1361.1 142.9 1145.5 57.7C1080.9 32.2 1012.8 14.7999 943.5 6.09998C907.2 1.5 894 0.799927 844.5 0.5C818.1 0.400024 794.5 0.400024 792 0.599976ZM905.5 96.4C968.7 102.7 1027.3 115.4 1083.4 135.1L1098.2 140.3L891.2 347.3L684.1 554.4L676.8 547.8C647.6 521.8 618.2 506.2 584 498.8C574.8 496.9 570.6 496.6 549.5 496.5C522.8 496.5 514.5 497.5 492.2 503.6L479.8 507L451.9 479.7L423.9 452.5L416.7 450.3C385.4 440.9 288.8 413 287.6 413C286.7 413 285.7 414.6 285 417.1C284.4 419.4 281.6 428.7 278.9 437.8C276.2 447 274 455.4 274 456.6C274 458 274.9 459.1 276.8 459.8C278.3 460.4 306 468.6 338.4 478C370.9 487.4 398.5 496 399.9 497C401.3 498 409.7 506.1 418.5 515L434.5 531.1L432 533.1C382.6 573.4 358.9 618.2 356.4 676.4C354.2 726.1 368.8 770.4 399.2 806.5C408.5 817.5 477.1 886 478.8 886C479.5 886 524.2 841.7 578.2 787.5C632.1 733.3 676.9 689 677.6 689C678.4 689 684 693.3 690 698.5C818.9 809.9 1008.3 832.4 1162 754.4C1225.3 722.3 1278.3 676.2 1319.8 617C1355.5 566 1379.5 507.7 1389.9 446.5C1394.1 422 1395.2 409.8 1395.7 377.8L1396.2 346.1L1406.2 357.8C1495.4 462.6 1554.5 594.4 1573.9 731.5C1579.8 773 1580.5 784.1 1580.5 837C1580.5 889.9 1579.8 901 1573.9 942.5C1554.7 1078.6 1496.5 1208.9 1408.3 1313.7C1398.6 1325.3 1395.9 1328 1398 1324C1400.1 1320.1 1398.7 1258.1 1396.1 1239C1379.2 1115.9 1313.4 1009.3 1211.5 940.1C1149.9 898.3 1085.9 875.8 1006.5 867.9C988.7 866.1 948.6 866.4 929.5 868.4C839.5 878 763 910.3 694 967.9C677.5 981.7 619 1039.8 619 1042.4C619 1043.8 694.5 1120 862.2 1287.7L1105.4 1530.9L1102.4 1532C1052.1 1551.2 997.6 1565.2 943.5 1572.9C902.2 1578.8 891 1579.5 838 1579.5C785.1 1579.5 774 1578.8 732.5 1572.9C490.7 1538.7 279.7 1385.5 171.1 1165.5C130.8 1083.9 106.8 998.8 97.2998 903.5C94.6998 877.5 94.6998 796.5 97.2998 770.5C105.5 688.4 123.7 616.5 154.7 544C229.1 370 371 228.1 545 153.7C625 119.5 701.1 101.5 794.5 94.6C797.3 94.4 819.5 94.4 844 94.5C876.8 94.7 893 95.2 905.5 96.4ZM1219.7 237.2C1236.1 267.3 1246.6 300.2 1251.6 338C1253.7 353.3 1254 390.9 1252.1 405.5C1244.8 463.5 1220.7 516.7 1181.2 562.3C1139.1 610.8 1076.1 644.8 1008.9 655.1C989.6 658.1 948.9 658.4 930.5 655.7C894.4 650.3 861.6 639.6 832.2 623.7L822.9 618.6L1018.2 423.3C1125.6 315.9 1213.8 228 1214.1 228C1214.4 228 1216.9 232.2 1219.7 237.2ZM569.5 593.9C583.6 597.6 608.5 611.9 610.7 617.7C611.4 619.4 480.3 751.2 478.3 750.8C475.8 750.2 465.7 736.1 460.9 726.5C453.8 712 451.7 703.3 451.7 688C451.7 680.2 452.3 672.8 453.3 668.5C462.3 628.3 490.9 599.9 529.8 592.5C540.3 590.5 558.9 591.2 569.5 593.9ZM1004.5 1011.5C1014.5 1012.8 1035 1016.8 1035.8 1017.6C1036 1017.7 1009.1 1044.9 976.1 1078C922.2 1131.9 915.8 1138 914.2 1136.8C913.3 1136 893.2 1116 869.5 1092.2C828.6 1050.9 826.6 1048.8 828.5 1047.4C831.8 1044.9 850.9 1035.4 860.5 1031.5C887.8 1020.1 918.1 1012.7 948.1 1010.1C961.5 1008.9 990.4 1009.6 1004.5 1011.5ZM1142.2 1066.2C1154 1075.1 1172.5 1091.7 1180.4 1100.6C1184.9 1105.6 1186 1107.5 1185.4 1108.8C1184.9 1109.7 1151.1 1143.8 1110.2 1184.5L1036 1258.5L1009.7 1232.2L983.5 1206L1057 1132.5C1097.4 1092.1 1131 1059 1131.5 1059C1132.1 1059 1136.9 1062.3 1142.2 1066.2ZM1242.8 1206.6C1258 1252.5 1260.9 1305.1 1251 1353C1248.5 1365.1 1243.4 1382.3 1238.3 1396C1234.6 1405.9 1221.3 1434.1 1218.6 1437.5C1217.2 1439.4 1214.8 1437.2 1160.5 1383L1104 1326.5L1170.7 1259.8C1207.4 1223.1 1237.8 1193.4 1238.1 1193.8C1238.5 1194.2 1240.6 1200 1242.8 1206.6Z" fill="#E53935"/>
<path d="M292.999 519.9C257.499 523 227.899 525.9 227.199 526.4C226.299 526.9 225.999 528.4 226.399 530.9C226.699 532.9 227.699 543 228.499 553.5C229.399 563.9 230.399 572.8 230.799 573.2C231.199 573.5 256.899 571.6 287.999 568.9C319.099 566.3 345.899 564 347.699 564C350.099 564 353.799 566.2 363.999 573.6C371.199 578.9 377.599 583 378.299 582.7C380.299 582 406.199 546 405.699 544.7C405.499 544 396.199 536.9 385.099 528.7C367.299 515.6 364.599 514 361.299 514.1C359.199 514.2 328.499 516.8 292.999 519.9Z" fill="#E53935"/>
</svg>
