<svg xmlns="http://www.w3.org/2000/svg" viewBox="0 0 500 500"><script xmlns=""/><defs><style>.cls-1{fill:#212529;}.cls-2{fill:#e31337;}.cls-3{fill:#fff;}</style></defs><g id="Layer_2" data-name="Layer 2"><g id="Layer_1-2" data-name="Layer 1"><path class="cls-1" d="M250,496A246,246,0,0,1,76.05,76.05,246,246,0,0,1,424,424,244.42,244.42,0,0,1,250,496Z"/><path class="cls-2" d="M250,8a242.07,242.07,0,0,1,94.19,465A242.07,242.07,0,0,1,155.81,27,240.59,240.59,0,0,1,250,8m0-8C111.93,0,0,111.93,0,250S111.93,500,250,500,500,388.07,500,250,388.07,0,250,0Z"/><path class="cls-3" d="M396.94,195.17a74,74,0,0,0-17.57-22.93,65.83,65.83,0,0,0-5.47-4.37,73,73,0,0,0-19.49-10.15l-.24-.08a74.19,74.19,0,0,0-90.39,103l-4.28,4.86-59.91,68a28.3,28.3,0,0,0-4.91,29.6,28,28,0,0,0,7.44,10.38,28.31,28.31,0,0,0,40-2.54,5,5,0,0,0,.43-.49h0a17.19,17.19,0,0,0,23.18-25.35l-.5-.38c-.14-.1-.27-.22-.39-.32a10.23,10.23,0,0,1-.81-.8,10.63,10.63,0,0,1,14.87-15.16l.36.34.08-.08a17.2,17.2,0,0,0,22.73-25.8l4.24-4.82a74.2,74.2,0,0,0,90.64-102.89m-33.73,37.51a27.82,27.82,0,1,1,3.68-31.47,27.6,27.6,0,0,1-3.68,31.47"/><path class="cls-2" d="M207.77,265.39a17.18,17.18,0,0,0,11.06-21.25l6.1-2a74.26,74.26,0,0,0,30.31,21,74.18,74.18,0,0,1,80-120.16,74.18,74.18,0,0,0-128.16,45.35l-6.15,2-86,28.53a28.32,28.32,0,1,0,17.83,53.76l.62-.2h0a17.2,17.2,0,0,0,32.8-10.21c-.09-.18-.17-.39-.25-.59a3.16,3.16,0,0,1-.16-.46c-.13-.38-.22-.75-.31-1.11a10.63,10.63,0,0,1,20.48-5.6c.06.16.11.33.15.48l.1,0a17.2,17.2,0,0,0,21.58,10.43"/></g></g><script xmlns=""/></svg>