<svg xmlns="http://www.w3.org/2000/svg" width="300" height="300" viewBox="0 0 4000 4000">
  <defs>
    <style>
      .cls-1 {
        fill-rule: evenodd;
      }
    </style>
  </defs>
  <path class="cls-1" d="M1762,378c255-2.045,481.29,15.944,653,98,47.04,22.478,89.71,52.787,131,81,54.4,37.173,176.2,109.049,134,218-34.92,90.135-124.29,117.395-221,147-31.88,9.76-63.08,4.775-98,12-37.19,7.7-130.63,8.99-171,2-90.88-15.735-171.41-35.2-255-57-48.1-12.546-94.72-20.795-141-33-64.67-17.054-129.16-22.705-199-35l-77-2c-111.59,0-305.83,21.539-350-45-5.91-8.9-7-22.68-7-37-0.02-69.273,44.98-101.994,80-137,90.96-90.926,201.4-144.978,344-186,42.73-12.292,87.98-11.363,133-22Zm69,143-40,2c-44.56,13.654-129.74,19.161-140,63-10.03,42.843,76.59,72.79,106,83,95.39,33.117,193.98,62.986,322,63,71.4,0.008,158.55-7.419,178-56,18.69-46.665-42.32-84.328-68-97C2093.95,532.09,1975.53,520.8,1831,521ZM2938,699c25.5,1.1,45.95,30.034,62,43,39.85,32.194,75.94,68.941,112,105q24,24,48,48c-48.57,77.3-109.96,143.71-164,215-88.42,116.63-191.84,230.8-338,289-73.53,29.28-202.92,48.11-303,26-21.84-4.82-43.65-3.26-62-9q-52.995-6.495-106-13c-72.4-16.41-146.9-25.17-211-50-142.04-55.02-262.6-126.46-421-167-32.59-8.34-108.69-3.68-136,4-22.68,6.38-41.09,3.16-63,9-46.43,12.38-97.89,20.51-149,30q-33.495,1.005-67,2c-70.21.01-129.43-3.15-179-23-34.849-13.96-64.224-37.79-96-54a1070.92,1070.92,0,0,1-99-57c-9.834-6.39-26-9.11-28-23q58.993-69.495,118-139c16.3-21.927,37.908-57.756,64-69,32.459,17.107,60.093,42.86,97,55l84,15c30.69,6.276,101.27,2.414,130-2,95.34-14.648,185.81-24.992,292-25,33.68,0,68.01-2.476,98,4,191.83,41.424,341.21,119.41,534,156,24.81,4.71,52.84,3,81,3,71.51,0.01,138.82-3.77,195-17,130.97-30.84,210.14-79.71,299-150,34.48-27.273,69.48-56.9,97-91C2860.14,772.942,2905.98,741.421,2938,699Zm331,320c36.56,18.12,90.95,114.49,110,156-9.17,40.49-44.66,96.42-64,131-38.14,68.2-77.04,134.77-115,201-25.27,44.09-53.37,85.43-81,127-52.97,79.69-100,158-166,224-35.81,35.81-74.07,74.89-124,96-162.35,68.64-322.4-2.05-455-53-66.81-25.67-144.48-24.29-223-39-43.53-8.16-85.62-18.61-124-34-78.32-31.4-147.37-71.47-217-111-77.04-43.74-148.44-93.47-245-119-86.62-22.9-191.17,4.71-261,21q-59.49,11.505-119,23l-38,3c-23.55,5.62-70.63,7.92-99,3-168.72-29.26-265.457-144.91-386-224q-39.5-26.49-79-53c-12.856-7.96-28.947-13.35-38-25,6.766-24.97,71.308-129.76,89-143,12.866,4,21.508,14.83,32,21,30.412,17.89,57.787,38.93,87,57,89.493,55.37,179.1,118.85,299,141,65.42,12.09,130.13-7.68,177-20,110.25-28.98,256.39-68.67,379-22,152.99,58.24,271.57,153.77,425,209,80.6,29.02,196.24,24,282,47l50,6c31.16,8.05,64.6,8.19,99,15,83.6,16.55,209.97,23.6,285-6,73.11-28.84,139.15-82.03,185-139,33.58-41.73,74.17-78.95,106-123,57.85-80.06,109.76-165.93,164-249q22.005-39,44-78C3255.07,1047.58,3259.58,1031.15,3269,1019Zm178,304h3c14.81,12.08,27.05,60.99,35,82,13.24,35.01,31.15,76.7,41,113,4.86,17.91-16.02,53.26-21,66-25.01,64-57.05,120.15-85,180-59.62,127.69-114.46,256.13-187,370-42.88,67.31-94.77,126.81-142,189-79.02,104.06-183.05,190.08-330,227-30.95,7.78-87.44,6.33-117-1q-25.995-4.005-52-8c-71.34-22.42-138.12-45.98-204-73-34.94-14.33-74.73-21.63-113-31-44.47-10.89-89.88-4.16-132-16-61.99-17.43-118.19-37.84-169-67-94.18-54.06-168.7-126.32-257-186-41.34-27.94-82.3-59.23-133-78-76.87-28.46-207.46-30.14-296-9-64.36,15.37-122.96,32.99-204,33h-49c-67.558-12.6-113.077-40.44-161-71-62.822-40.06-122.169-81.17-180-126l-108-94c-36.688-27.38-68.929-61.68-107-87q-26-18.495-52-37c-0.038-20.84,7.245-39.67,12-57,9.626-35.08,15.965-69.25,28-101,6-15.83,8.029-40.61,19-52,13.185,4.4,21.581,13.3,32,20,40.673,26.14,75.144,55.99,112,85,73.234,57.65,141.534,118.2,221,170,33.846,22.06,71.783,47.87,114,61,118.26,36.77,254.77,21.65,361-15,50.77-17.52,163.27-48.55,233-27,128.73,39.78,229.88,113.66,332,182,74.13,49.61,141.8,94.35,243,119q31.995,3.495,64,7c53.1,9.15,103.69,11.44,148,30,35.68,14.94,72.93,26.23,110,40,66.41,24.67,132.09,50.15,208,66,64.88,13.55,147.94-6.5,188-27,144.13-73.76,240.08-203.02,321-340q36.495-67.5,73-135c30.85-51.24,56.42-105.37,87-158q20.505-38.49,41-77,22.005-47.49,44-95Q3432.505,1359,3447,1323Zm114,357c3.89,1.14,4.06.9,6,4,15.1,28.43,21.62,87.29,28,122q1.5,23.505,3,47c-17.64,63.33-49.46,124.05-78,178q-22.005,48-44,96c-35.19,65.61-62.55,133.07-98,197-117.83,212.49-279.14,441.63-477,573-18.09,12.01-35.71,27.57-54,40-53.11,36.11-111.39,56.52-184,74-22.01,5.3-96.4,14.31-125,6-27.97-8.13-59.28-11.96-87-20-81.42-23.61-155.4-58.45-240-83l-82-12c-77.09-17.72-163.3-26.95-224-62-109-62.95-189.34-152.34-295-219-27.86-17.58-60.11-38.53-93-50-47.25-16.48-112.5-35.18-181-24h-26c-67.73,16.09-169.68,33.79-247,14-68.5-17.53-121.759-57.17-171-95q-27.5-27-55-54c-68.23-55.03-128.1-120.39-197-175q-30-28.5-60-57-99.99-82.995-200-166c-0.691-40.37,7.8-146.32,23-168,42.436,26.74,80.24,57.42,119,88q23,20.505,46,41c82.354,59.93,156.635,129.12,239,190,58.194,43.02,110.151,91.88,184,120,75.15,28.62,217.36,27.25,310,12,34.57-5.69,95.69-12.69,137-6,43.65,7.07,80.09,13.66,115,28,47.71,19.6,91.67,51.82,132,80,53.73,37.54,108.99,71.07,166,105,85.79,51.06,160.85,105.8,274,132l67,9c57.36,13.16,114.16,18.57,169,35,80.62,24.16,158.4,46.23,242,68q29.49,1.005,59,2c95.68,0.01,163.98-18.9,224-55,219.03-131.74,358.34-357.21,483-583,38.4-69.55,68.78-144.85,106-214,26.15-48.57,46.22-109.43,65-162C3546.74,1717.14,3551.1,1696.2,3561,1680Zm40,307c3,0.33,6,.67,9,1,2.57,28.54,8,54.56,8,88v22q-24.99,54-50,108c-31.4,69.89-60.07,140.13-99,203q-29.49,55.995-59,112c-19.52,33.84-40.71,66.79-59,102Q3332,2652,3313,2681c-49.81,75.38-96.56,149.12-151,219q-31.5,36.99-63,74c-71.98,98.67-159.29,193.94-255,269-79.49,62.34-173.39,114.98-314,115h-58c-78.15-12.74-147.07-24.97-217-44q-77.49-24.495-155-49l-132-30c-35.95-12.35-66.9-27.32-98-44-93.38-50.07-163.53-132.26-246-194-46.07-34.49-88.28-78.04-149-98-57.61-18.94-153.31-34.22-235-21-68.8,11.13-167.98,19.47-235,1-139.716-38.5-229.341-194.64-308-299-40.947-54.33-91.129-99.9-135-151q-62.495-61.5-125-123-30-27-60-54c-6.378-12.01-1.929-100.08-1-119,14.077,4.16,19.348,17.81,30,25,45.041,30.38,80.475,70.49,122,104,52.825,42.63,100.121,94.12,148,142q51.995,53.49,104,107c46.05,58.93,117.42,142.78,181,182,72.03,44.43,189.36,36.64,282,16q42-4.995,84-10c57.77-10.24,138.3,9.54,175,24,53.62,21.13,90.46,56.21,133,87,80.19,58.05,142.28,134.07,228,188,76.9,48.38,181.27,54.83,281,83,127.76,36.09,233.22,81.97,369,111,40.46,8.65,108.41.06,139-8,98.19-25.86,158.89-71.84,230-122l54-51a588.257,588.257,0,0,0,85-85c16.89-20.96,38.86-37.69,56-59,31.21-38.82,75.39-71.12,102-114,25.38-40.9,58.85-76.97,85-117,72.19-110.52,143.02-224.97,200-349,30.49-66.37,63.33-132.92,92-203Q3578.5,2035.505,3601,1987Zm1,280c1.33,0.33,2.67.67,4,1,2.86,151.29-44.37,237.24-96,332-44.85,82.32-97.05,158.17-142,238-63.62,112.99-146.51,208.81-218,313-131.28,191.31-319.37,408.72-558,490-78.42,26.71-139.16,37.99-249,38h-75c-36.05-6.7-79.89-9.17-114-16-72.12-14.44-152.78-7.25-217-28l-41-6c-18.38-6.98-39.99-9.72-60-16-35.02-11-71.53-29.57-100-49-59.72-40.75-111.61-92.62-162-143q-36.495-35.49-73-71c-45.94-32.85-90.86-65.86-144-92-130.22-64.07-322.25-62.89-452-126-138.995-67.6-204.46-190.28-288-313-42.319-62.17-84.37-124.03-126-187-43.45-65.72-100.078-153.97-100-260,14.848,4.88,28.435,26.43,39,37,31.748,31.75,64.7,62.85,93,98q23,24.99,46,50c38.33,50.56,79.987,100.51,115,154,59.823,91.38,120.193,187.57,213,246,38.959,24.53,87.5,38.39,138,51l74,9q70.995,0.495,142,1l60,3c55.92,10.46,111.84,15.23,155,39,52.01,28.64,99.24,58.57,144,94,95.27,75.41,171.32,175.2,290,227,45.52,19.87,101.62,22.41,154,36,55.95,14.52,112.81,29.21,167,46q66,13.005,132,26c31.41,5.48,67.18,2.99,102,3,157.3,0.02,270.58-50.71,363-117,27.36-19.62,51.12-45.15,77-66,87.79-70.74,159.69-166.79,227-258,39.34-53.31,84.41-103.92,122-159,71.22-104.35,136.5-215.33,201-326q13.005-27,26-54c27.19-48.63,56.45-98.59,82-149C3569.2,2331.04,3581.42,2294.89,3602,2267Z"/>
</svg>
