<svg xmlns="http://www.w3.org/2000/svg" xmlns:xlink="http://www.w3.org/1999/xlink" version="1.1" x="0px" y="0px" viewBox="0 0 512 640" enable-background="new 0 0 512 512" xml:space="preserve"><g><circle cx="368.1" cy="242.3" r="20"/><path d="M496,227H464c-13.4-38.9-42.6-72.9-82.1-95.4c-1.8-58-49.4-104.7-107.9-104.7C216.8,26.9,170,71.7,166.4,128   c-31.6,16.5-56.8,39.7-73.6,66.9c-10.8-6.3-23.1-9.8-36-9.8c-19.2,0-37.2,7.5-50.7,21c-5.5,5.5-5.5,14.4,0,19.8   c5.5,5.5,14.4,5.5,19.8,0c8.3-8.3,19.2-12.8,30.9-12.8c8.4,0,16.3,2.5,23.3,6.9c-7,17.7-10.8,36.6-10.8,55.9   c0,52.5,26.8,100.9,73.8,133.9v61.1c0,7.7,6.3,14,14,14h65c7.7,0,14-6.3,14-14v-24.5c25,3.7,50.6,3.4,75.8-1.2v25.7   c0,7.7,6.3,14,14,14h65c7.7,0,14-6.3,14-14V405c27.9-21.5,48.4-49.4,59-80H496c7.7,0,14-6.3,14-14v-70C510,233.3,503.7,227,496,227   z M274.1,55c44.1,0,80,35.9,80,80c0,17.6-5.8,34.6-16.4,48.5H210.5c-10.6-13.9-16.4-30.9-16.4-48.5C194.1,90.8,230,55,274.1,55z    M481.9,297h-28.3c-6.4,0-11.9,4.3-13.6,10.4c-8.1,30.5-28.4,58.6-57.2,79.1c-3.7,2.6-5.9,6.9-5.9,11.4V457h-37v-29.1   c-0.6-10-8.5-15.4-17.6-13.6c-32.1,8.4-65.6,8.8-97.2,1.6c-9-1.7-16.5,4.4-17.1,13.7V457h-37v-54.5c0-4.8-2.4-9.2-6.4-11.8   c-19.1-12.3-34.5-27.5-45.7-44.4h26.6c7.7,0,14-6.3,14-14s-6.3-14-14-14h-40.8c-3.3-9.2-5.6-18.8-6.7-28.6h74.9c7.7,0,14-6.3,14-14   s-6.3-14-14-14H98.3c4.9-41,30.7-78.5,70.5-102.8c1.9,8.6,5,16.8,8.9,24.6h-4.6c-7.7,0-14,6.3-14,14s6.3,14,14,14h202   c7.7,0,14-6.3,14-14s-6.3-14-14-14h-4.7c3.4-6.7,6.2-13.6,8.1-20.9c30.9,20.6,53,49.7,61.6,82c1.6,6.2,7.2,10.4,13.6,10.4h28.3V297   z"/></g></svg>