<?xml version="1.0" encoding="UTF-8"?>
<svg width="493px" height="493px" viewBox="0 0 493 493" version="1.1" xmlns="http://www.w3.org/2000/svg" xmlns:xlink="http://www.w3.org/1999/xlink">
    <!-- Generator: Sketch 52.1 (67048) - http://www.bohemiancoding.com/sketch -->
    <title>icon-circlesteem-white</title>
    <desc>Created with Sketch.</desc>
    <defs>
        <path d="M246.121812,0 C110.192608,0 0,110.192608 0,246.121812 C0,382.051015 110.192608,492.243623 246.121812,492.243623 C382.051015,492.243623 492.243623,382.051015 492.243623,246.121812 C492.243623,110.192608 382.051015,0 246.121812,0 Z M184.570536,331.160854 L182.238417,333.492972 C177.4076,338.32379 172.243623,342.904737 166.913066,347.152525 L160.74961,351.983342 C160.33316,352.316502 159.83342,352.483082 159.33368,352.483082 C158.917231,352.483082 158.500781,352.399792 158.167621,352.149922 C157.334721,351.650182 156.918272,350.733993 157.168142,349.734513 L159.58355,338.823529 C162.248829,326.996356 161.665799,314.586153 157.917751,303.00885 L156.585112,299.010932 C155.085893,294.346694 153.253514,289.765747 151.337845,285.26809 L122.935971,218.219677 L119.854243,209.057782 C118.938053,206.225924 118.271733,203.310776 117.938574,200.312337 L117.438834,195.73139 C116.022905,182.821447 120.437272,170.161374 129.599167,160.999479 L131.931286,158.667361 C136.762103,153.836543 141.92608,149.255596 147.256637,145.007808 L153.420094,140.176991 C154.169703,139.593961 155.169183,139.510672 156.002082,140.010411 C156.834982,140.510151 157.251432,141.42634 157.001562,142.42582 L154.586153,153.336804 C151.920875,165.163977 152.503904,177.57418 156.251952,189.151484 L157.584591,193.149401 C159.083811,197.813639 160.916189,202.394586 162.831858,206.892244 L191.317022,273.940656 L194.398751,283.102551 C195.31494,285.934409 195.98126,288.849558 196.31442,291.847996 L196.814159,296.428943 C198.146799,309.255596 193.732431,321.915669 184.570536,331.160854 Z M280.687142,353.149401 L277.688704,356.14784 C271.608537,362.228006 265.111921,368.058303 258.365435,373.30557 L250.369599,379.635606 C249.953149,379.968766 249.37012,380.135346 248.87038,380.135346 C248.45393,380.135346 247.954191,379.968766 247.537741,379.718896 C246.621551,379.135867 246.205102,378.136387 246.454971,377.136908 L249.61999,363.060906 C252.951588,348.068714 252.201978,332.410203 247.454451,317.834461 L245.788652,312.753774 C243.872983,306.840187 241.624154,301.009891 239.125455,295.346174 L203.227486,210.806871 L199.396148,199.312858 C198.230088,195.81468 197.397189,192.066632 196.980739,188.401874 L196.31442,182.571577 C194.482041,166.413326 200.062467,150.588235 211.473191,139.010932 L214.471629,136.012493 C220.551796,129.932327 227.048412,124.10203 233.794898,118.854763 L241.790734,112.524727 C242.623634,111.858407 243.706403,111.775117 244.622592,112.358147 C245.538782,112.941176 245.955232,113.940656 245.705362,114.940135 L242.540344,129.016137 C239.208745,144.008329 239.958355,159.66684 244.705882,174.242582 L246.371681,179.323269 C248.28735,185.153566 250.536179,191.067153 253.034878,196.730869 L288.932847,281.353462 L292.764185,292.847475 C293.930245,296.345653 294.763144,300.093701 295.179594,303.758459 L295.845914,309.588756 C297.678293,325.747007 292.097866,341.655388 280.687142,353.149401 Z M362.644456,331.160854 L360.312337,333.492972 C355.48152,338.32379 350.317543,342.904737 344.986986,347.152525 L338.823529,351.983342 C338.40708,352.316502 337.90734,352.483082 337.4076,352.483082 C336.99115,352.483082 336.574701,352.399792 336.241541,352.149922 C335.408641,351.650182 334.992192,350.733993 335.242061,349.734513 L337.65747,338.823529 C340.322749,326.996356 339.739719,314.586153 335.991671,303.00885 L334.659032,299.010932 C333.159813,294.346694 331.327434,289.765747 329.411765,285.26809 L300.926601,218.219677 L297.844872,209.057782 C296.928683,206.225924 296.262363,203.310776 295.929204,200.312337 L295.429464,195.73139 C294.013535,182.821447 298.427902,170.161374 307.589797,160.999479 L309.921916,158.667361 C314.752733,153.836543 319.91671,149.255596 325.247267,145.007808 L331.410724,140.176991 C332.160333,139.593961 333.159813,139.510672 333.992712,140.010411 C334.825612,140.510151 335.242061,141.42634 334.992192,142.42582 L332.576783,153.336804 C329.911504,165.163977 330.494534,177.57418 334.242582,189.151484 L335.575221,193.149401 C337.07444,197.813639 338.906819,202.394586 340.822488,206.892244 L369.307652,273.940656 L372.389381,283.102551 C373.30557,285.934409 373.97189,288.849558 374.305049,291.847996 L374.804789,296.428943 C376.220718,309.255596 371.806351,321.915669 362.644456,331.160854 Z" id="path-1"></path>
    </defs>
    <g id="icon-circlesteem-white" stroke="none" stroke-width="1" fill="none" fill-rule="evenodd">
        <g id="gradient-bg">
            <mask id="mask-2" fill="white">
                <use xlink:href="#path-1"></use>
            </mask>
            <use id="Mask" fill="#FFFFFF" fill-rule="nonzero" xlink:href="#path-1"></use>
        </g>
    </g>
</svg>