<!DOCTYPE a>
<svg xmlns="http://www.w3.org/2000/svg" aria-label="TikTok" role="img" viewBox="0 0 512 512"><script xmlns=""/><rect rx="15%" height="512" width="512" fill="#fff"/><style>*{mix-blend-mode:multiply}</style><path fill="#ff004f" d="m 219,200 a 117,117 0 1 0 100.6,115.4 v -128 a 150,150 0 0 0 88,28 v -63 a 88,88 0 0 1 -88,-88 H 256 V 316 a 53.5,53.5 0 1 1 -37,-51 z" transform="translate(18,15)"/><path d="m 219,200 a 117,117 0 1 0 100.6,115.4 v -128 a 150,150 0 0 0 88,28 v -63 a 88,88 0 0 1 -88,-88 H 256 V 316 a 53.5,53.5 0 1 1 -37,-51 z" fill="#00f2ea"/><script xmlns=""/></svg>