<svg id="logosandtypes_com" xmlns="http://www.w3.org/2000/svg" viewBox="0 0 150 150"><script xmlns=""/><path d="M0 0h150v150H0z" fill="none"/><path d="M70.26 137a61.52 61.52 0 0 1-27.37-9.72c-6.92-4.53-8.48-6.38-8.48-10.1 0-7.44 8.18-20.5 22.17-35.36 8-8.45 19-18.35 20.21-18.09 2.33.52 20.94 18.71 27.91 27.25 11 13.55 16.09 24.63 13.52 29.56-2 3.76-14.1 11.1-23 13.91A67.28 67.28 0 0 1 70.26 137zm-45.19-27.56C19.32 100.61 16.42 91.9 15 79.33c-.46-4.16-.3-6.53 1.06-15.06 1.69-10.63 7.72-22.91 15-30.48 3.1-3.22 3.37-3.31 7.14-2 4.58 1.55 9.46 4.92 17.05 11.79l4.42 4-2.41 3C46 64.33 34.19 83.88 29.73 96c-2.43 6.57-3.4 13.18-2.36 15.92.7 1.82.06 1.14-2.3-2.48zM126 110.93c.56-2.77-.15-7.87-1.84-13-3.63-11.13-15.82-31.87-27-45.95l-3.52-4.43L97.43 44a79.83 79.83 0 0 1 12.16-9.64c3-1.84 7.15-3.45 9-3.45 1.11 0 5 4.07 8.2 8.53a64.51 64.51 0 0 1 10.33 23.94c1.18 5.62 1.28 17.64.2 23.24a75.07 75.07 0 0 1-4.62 14.62 78.93 78.93 0 0 1-6.33 10.83c-.76 1-.76 1-.34-1.17zM71.28 28.82a77.18 77.18 0 0 0-17.54-6.21 33.06 33.06 0 0 0-5.85-.33c-3.64.18-3.47 0 2.35-2.75a59.8 59.8 0 0 1 14.37-4.79c6.18-1.3 17.76-1.31 23.84 0C95 16.1 102.72 19 107.07 21.65l1.29.8-3-.15c-5.9-.3-14.49 2.08-23.71 6.58a46.2 46.2 0 0 1-5.38 2.4c-.12-.03-2.4-1.14-4.99-2.46z" fill="#107c10"/><script xmlns=""/></svg>