<svg xmlns="http://www.w3.org/2000/svg" width="1240" height="1240"><path d="M310.658 86.25c-1.349 1.237-8.171 12.15-15.161 24.25-6.989 12.1-15.982 27.625-19.984 34.5-4.002 6.875-43.146 74.15-86.985 149.5-43.84 75.35-88.62 152.3-99.512 171-10.892 18.7-35.393 60.775-54.446 93.5C15.516 591.725.109 619.223.332 620.106c.331 1.31 34.553 60.265 44.635 76.894 1.501 2.475 5.884 9.9 9.74 16.5 3.857 6.6 12.188 20.775 18.514 31.5 11.997 20.338 51.41 87.319 76.938 130.75 8.162 13.888 21.525 36.612 29.694 50.5a614537.16 614537.16 0 0159.994 102c62.555 106.381 73.677 124.96 75.343 125.851 3.206 1.716 5.476.08 9.563-6.889 2.164-3.692 12.962-22.237 23.995-41.212 11.033-18.975 50.299-86.475 87.257-150a402955.414 402955.414 0 0083.749-144c9.103-15.675 19.464-33.45 23.024-39.5 3.56-6.05 8.175-13.925 10.255-17.5C617.519 644.167 631 620.736 631 619.493c0-.819-14.246-25.677-31.658-55.241a161892.064 161892.064 0 01-46.5-79.002 328322.539 328322.539 0 00-59.989-102A2525081.485 2525081.485 0 01369.771 174a85712.401 85712.401 0 01-34.673-59c-14.733-25.098-18.76-31-21.153-31-.458 0-1.937 1.013-3.287 2.25m147.913-.679c-.864.865-1.571 2.483-1.571 3.597 0 1.724 12.654 24.185 44.975 79.832 3.673 6.325 12.01 20.725 18.525 32 6.515 11.275 14.84 25.675 18.499 32 3.659 6.325 10.412 18.025 15.007 26 4.594 7.975 12.921 22.375 18.503 32 5.583 9.625 15.349 26.5 21.703 37.5 6.354 11 24.035 41.6 39.291 68 15.255 26.4 32.935 57 39.287 68 6.353 11 16.118 27.875 21.701 37.5a11980.73 11980.73 0 0118.486 32c4.586 7.975 9.21 15.974 10.278 17.777 3.994 6.742-3.223 6.223 86.594 6.223 72.332 0 81.961-.179 83.928-1.557 3.892-2.725 4.915-.397-16.241-36.943A563273.365 563273.365 0 01773.772 340c-10.67-18.475-18.072-31.284-34.963-60.5l-18.499-32c-3.814-6.6-11.363-19.65-16.775-29-5.411-9.35-24.644-42.65-42.738-74s-33.825-57.787-34.958-58.75c-1.926-1.636-7.408-1.75-83.878-1.75-73.047 0-81.987.168-83.39 1.571m304.652-.014c-3.855 2.699-5.298-.328 23.812 49.943 5.096 8.8 29.714 51.325 54.707 94.5 50.997 88.098 64.118 110.752 78.772 136 5.586 9.625 19.528 33.7 30.982 53.5a54803.88 54803.88 0 0030.987 53.5 32270.12 32270.12 0 0122.017 38 42135.268 42135.268 0 0022.008 38c32.383 55.827 40.492 69.93 40.492 70.429 0 .476-28.679 50.346-40.008 69.571-2.107 3.575-19.323 33.275-38.258 66a430128.39 430128.39 0 01-64.526 111.5c-5.731 9.9-13.676 23.625-17.654 30.5-3.978 6.875-29.652 51.2-57.053 98.5-67.103 115.836-63.373 109.391-76.689 132.495-6.496 11.272-11.812 21.259-11.812 22.193 0 .934 1 2.399 2.223 3.255 1.967 1.378 11.585 1.557 83.808 1.557 63.729 0 81.945-.274 83.224-1.25.901-.687 6.304-9.35 12.006-19.25 12.283-21.324 21.971-38.067 53.477-92.42 12.937-22.319 26.776-46.205 30.752-53.08a42124.103 42124.103 0 0125.467-44c3.668-6.325 11.095-19.15 16.506-28.5 10.595-18.31 82.492-142.517 92.036-159 3.184-5.5 8.791-15.175 12.46-21.5 3.668-6.325 12.012-20.725 18.541-32 6.529-11.275 15.001-25.9 18.827-32.5 24.367-42.042 28.905-50.218 28.914-52.089.005-1.148-18.344-33.773-40.776-72.5A381060.148 381060.148 0 011151.027 465l-16.487-28.5c-5.409-9.35-14.785-25.55-20.837-36l-56.459-97.5a1670152.46 1670152.46 0 00-69.496-120 191450.01 191450.01 0 01-39.951-69c-8.752-15.125-16.647-28.062-17.546-28.75-1.276-.976-19.488-1.25-83.22-1.25-72.223 0-81.841.179-83.808 1.557m-40.831 604.208c-.61.404-4.548 6.697-8.75 13.985A42057.644 42057.644 0 01676.531 768a96081.77 96081.77 0 00-39.001 67.5c-13.652 23.65-27.834 48.175-31.515 54.5-3.681 6.325-15.39 26.575-26.021 45a32107.862 32107.862 0 01-29.481 51c-5.585 9.625-13.791 23.8-18.236 31.5-9.866 17.089-38.415 66.481-59.598 103.111-8.624 14.91-15.679 28.041-15.679 29.178 0 5.439-3.707 5.211 84.637 5.211 51.721 0 82.168-.361 83.339-.987 2.217-1.187.09 2.328 30.57-50.513 13.642-23.65 32.869-56.95 42.726-74 9.857-17.05 21.546-37.3 25.975-45 4.429-7.7 9.268-16.025 10.753-18.5 1.485-2.475 6.446-11.025 11.024-19 8.487-14.784 12.784-22.223 33.211-57.5 6.37-11 25.62-44.3 42.779-74 17.159-29.7 39.7-68.707 50.092-86.681C882.498 710.844 891 695.071 891 693.769c0-1.303-.54-2.909-1.2-3.569-.914-.914-20.861-1.196-83.75-1.185-45.402.009-83.049.346-83.658.75" fill="undefined" fill-rule="evenodd"/></svg>