<svg xmlns="http://www.w3.org/2000/svg" width="1240" height="1240"><path d="M352.807 86.75c-.827.963-31.778 62.05-68.781 135.75-37.003 73.7-96.921 192.989-133.152 265.086C114.643 559.683 85 619.473 85 620.452c0 .979 5.566 12.64 12.369 25.914 6.803 13.274 21.49 42.134 32.638 64.134s24.196 47.65 28.996 57c4.8 9.35 21.152 41.525 36.337 71.5 15.185 29.975 57.461 113.225 93.947 185 59.91 117.858 66.581 130.529 68.861 130.801 1.388.165 2.978-.285 3.534-1 .987-1.27 45.475-89.65 174.823-347.301 35.067-69.85 70.224-139.705 78.127-155.233C622.534 635.738 629 621.841 629 620.383c0-1.457-6.918-16.202-15.373-32.766A42398.713 42398.713 0 01577.698 517C444.975 255.497 358.738 86.452 357.733 85.814c-1.924-1.223-3.296-.962-4.926.936m127.764-.179c-.864.865-1.571 2.437-1.571 3.494 0 2.551 231.687 466.075 233.767 467.685 1.257.973 17.061 1.25 71.202 1.25 61.362 0 69.849-.184 71.808-1.557 1.223-.856 2.223-2.389 2.223-3.407 0-1.844-230.734-464.805-233.035-467.578C623.926 85.206 613.77 85 552.949 85c-63.036 0-70.979.172-72.378 1.571m263 0c-.864.865-1.571 2.489-1.571 3.61s59.495 120.823 132.211 266.005l132.21 263.968-132.21 264.423C801.495 1030.01 742 1149.846 742 1150.878c0 1.032.612 2.385 1.36 3.006.99.821 20.975 1.059 73.25.873l71.89-.257 133.195-266c73.258-146.3 133.22-266.791 133.25-267.758.065-2.09-265.671-533.909-267.314-534.977-.622-.404-32.936-.741-71.81-.75-62.933-.013-70.85.157-72.25 1.556M593.424 919.546C530.491 1045.797 479 1149.882 479 1150.846c0 4.19-.643 4.154 74.226 4.154h71.826l114.474-229.118C802.487 799.868 854 695.783 854 694.582c0-1.2-.54-2.722-1.2-3.382-.911-.911-18.506-1.2-73.076-1.2h-71.877L593.424 919.546" fill="undefined" fill-rule="evenodd"/></svg>