<svg xmlns="http://www.w3.org/2000/svg" width="519" height="479" viewBox="0 0 519 479">
  <g fill="none">
    <path fill="#212529" d="M73.6,367 L104,367 L104,479 L73.6,479 L73.6,435.32 L30.4,435.32 L30.4,479 L0,479 L0,367 L30.4,367 L30.4,407.48 L73.6,407.48 L73.6,367 Z M168,367 L198,367 L198,479 L168,479 L168,367 Z M296.01455,479 L252,368.44 L252,367 L284.970899,367 L312.5,443 L340.029101,367 L373,367 L373,368.44 L328.98545,479 L296.01455,479 Z M456.465517,451.48 L519,451.48 L519,479 L426,479 L426,367 L517.877586,367 L517.877586,394.52 L456.465517,394.52 L456.465517,410.04 L495.42931,410.04 L495.42931,435.64 L456.465517,435.64 L456.465517,451.48 Z"/>
    <g fill="#E31337" transform="translate(97)">
      <path d="M232.837514,159.689362 C233.915928,159.689362 234.589416,160.85738 234.049168,161.790713 L164.640376,281.701351 C164.390086,282.133751 163.928336,282.4 163.428721,282.4 L121,282.4 C119.921586,282.4 119.248098,281.231981 119.788346,280.298649 L189.197138,160.38801 C189.447427,159.955611 189.909178,159.689362 190.408792,159.689362 L232.837514,159.689362 Z M191.571279,125.31895 C191.071664,125.31895 190.609914,125.052701 190.359624,124.620301 L119.788346,2.70135121 C119.248098,1.76801875 119.921586,0.6 121,0.6 L163.428721,0.6 C163.928336,0.6 164.390086,0.866248902 164.640376,1.29864879 L235.211654,123.217599 C235.751902,124.150931 235.078414,125.31895 234,125.31895 L191.571279,125.31895 Z"/>
      <path d="M199.787954 2.70067364C199.248402 1.76734052 199.921934.6 201 .6L243.356244.6C243.856138.6 244.318103.866544512 244.568291 1.29932636L325.212046 140.799326C325.462651 141.23283 325.462651 141.76717 325.212046 142.200674L244.568291 281.700674C244.318103 282.133455 243.856138 282.4 243.356244 282.4L201 282.4C199.921934 282.4 199.248402 281.232659 199.787954 280.299326L280.026656 141.5 199.787954 2.70067364zM164.709033 141.294139C164.962456 141.728214 164.963731 142.264831 164.712374 142.700106L84.1556892 282.200106C83.6182796 283.130739 82.2761094 283.133928 81.7342824 282.205861L.290967312 142.705861C.0375440758 142.271786.0362687421 141.735169.287625864 141.299894L80.8443108 1.79989361C81.3817204.869261441 82.7238906.866071615 83.2657176 1.79413885L164.709033 141.294139z"/>
    </g>
  </g>
</svg>
